<?xml version="1.0" encoding="utf-8"?>
<!-- Generator: Adobe Illustrator 19.0.0, SVG Export Plug-In . SVG Version: 6.00 Build 0)  -->
<svg version="1.1" id="Layer_1" xmlns="http://www.w3.org/2000/svg" xmlns:xlink="http://www.w3.org/1999/xlink" x="0px" y="0px"
	 width="1400px" height="980px" viewBox="0 0 1400 980" style="enable-background:new 0 0 1400 980;" xml:space="preserve">
<style type="text/css">
	.st0{fill:#414042;}
</style>
<g id="XMLID_22_">
	<g id="XMLID_21_">
		<g id="XMLID_3_">
			<path id="XMLID_60_" class="st0" d="M631.1,242.2c0,6.4,4.8,14,27.5,14h81.9l-0.1-1.7c1.6,1.1,3.6,1.7,5.7,1.7
				c5.8,0,10.5-4.7,10.5-10.5c0-5.8-4.7-10.5-10.5-10.5c-2.8,0-5.4,1.1-7.3,2.9c-2.9-14.7-10.7-26.9-31.7-28
				c-14.3-0.8-25.4,5-33,10.3l-26.1-66l-2.2,5.7c-11.3,28.6-1,46,8.9,55.2C643.8,218.1,631.1,231.9,631.1,242.2z M746.2,239.9
				c3.2,0,5.7,2.6,5.7,5.7c0,3.2-2.6,5.7-5.7,5.7c-3.2,0-5.7-2.6-5.7-5.7C740.5,242.5,743.1,239.9,746.2,239.9z M707,214.8
				c19,1,27.4,11.6,28.6,36.5h-44.5c3-3.1,9.5-3.7,9.6-3.7l2.9-0.2l-0.8-2.8c0-0.1-1.6-6.2,3.5-10.6c5.8-5,16.3,1.1,16.4,1.2
				l2.5-4.1c-0.6-0.3-13.6-8-22-0.7c-5,4.3-5.6,9.7-5.4,12.9c-3.7,0.7-10.3,2.7-12.3,8.1h-13.5c4.6-3.8,7.5-9.5,7.5-15.9
				c0-3.9-1.1-7.6-3-10.8C683.5,219.7,693.8,214.1,707,214.8z M648.2,167.8l19.3,48.9c-1.7-0.8-3.6-1.4-5.6-1.7
				C651.2,207,640.7,192.5,648.2,167.8z M658.6,219.5c8.8,0,15.9,7.2,15.9,15.9c0,8.8-7.2,15.9-15.9,15.9c-10.3,0-22.7-1.6-22.7-9.2
				C636,233.3,649.7,219.5,658.6,219.5z"/>
		</g>
		<g id="XMLID_5_">
			<path id="XMLID_57_" class="st0" d="M1330.4,195.6l-4.7,0.8c-8.5,1.4-16,6.7-20.3,14.2c-12.5-11.2-28.4-17.3-45.3-17.3
				c-22.7,0-43.9,11.3-56.5,30.2l-1,1.5l1,1.5c12.7,18.9,33.8,30.2,56.5,30.2c16.9,0,32.8-6.1,45.3-17.3
				c4.3,7.4,11.8,12.8,20.3,14.2l4.7,0.8l-1.8-4.4c-3.3-7.9-5-16.3-5-25c0-8.7,1.7-17.1,5-25L1330.4,195.6z M1321.9,247.1
				c-5.9-2.3-10.8-7.1-13.3-13l-1.5-3.6l-2.8,2.7c-11.8,11.7-27.5,18.2-44.2,18.2c-7.4,0-14.6-1.3-21.4-3.8
				c7.5-9.1,5.4-21.1,5.3-21.6l-5.1,0.9c0,0.1,1.9,11.2-5.3,18.6c-9.7-4.5-18.3-11.5-24.7-20.5c11.8-16.6,30.8-26.4,51.2-26.4
				c16.7,0,32.4,6.5,44.2,18.2l2.8,2.7l1.5-3.6c2.5-6,7.4-10.7,13.3-13c-2.4,7.1-3.6,14.5-3.6,22.1
				C1318.3,232.6,1319.5,240,1321.9,247.1z"/>
			<circle id="XMLID_53_" class="st0" cx="1225.8" cy="220" r="3.3"/>
		</g>
		<g id="XMLID_9_">
			<path id="XMLID_75_" class="st0" d="M334.3,457.4c1.3,4.4,5.3,7.3,9.7,7.3c0.9,0,1.9-0.1,2.8-0.4l49.1-14.1v27
				c0,4.1,2.7,7.3,6.1,7.3h2.5c3.4,0,6.1-3.2,6.1-7.3v-27l49.1,14.1c0.9,0.3,1.9,0.4,2.8,0.4c4.4,0,8.4-2.9,9.7-7.3
				c1.5-5.3-1.6-10.9-6.9-12.4l-28.2-8.1l26.3-8.8c2.5-0.8,4.6-2.6,5.8-5s1.4-5.1,0.5-7.7c-0.8-2.5-2.6-4.6-5-5.8
				c-2.4-1.2-5.1-1.4-7.7-0.5l-47,15.7c-0.3-0.7-0.6-1.3-1.1-1.9c1.8-1.6,3-4,3-6.6c0-4.8-3.9-8.8-8.8-8.8c-4.8,0-8.8,3.9-8.8,8.8
				c0,2.6,1.2,5,3,6.6c-0.4,0.6-0.8,1.2-1.1,1.9l-47-15.7c-2.5-0.8-5.3-0.7-7.7,0.5c-2.4,1.2-4.2,3.3-5,5.8
				c-0.8,2.5-0.7,5.3,0.5,7.7c1.2,2.4,3.3,4.2,5.8,5l26.3,8.8l-28.2,8.1C335.9,446.5,332.8,452.1,334.3,457.4z M463.8,450
				c2.6,0.7,4,3.4,3.3,6c-0.7,2.6-3.4,4-6,3.3l-49-14.1l16.1-5.4L463.8,450z M458.7,414c1.2-0.4,2.5-0.3,3.7,0.3
				c1.2,0.6,2,1.6,2.4,2.8c0.8,2.5-0.5,5.3-3,6.1l-33.5,11.2l-16.4-4.7L458.7,414z M419.4,437.3l-8.8,2.9v-3.3
				c0-0.8-0.1-1.6-0.3-2.3L419.4,437.3z M405.3,477.1c0,1.3-0.7,2.1-0.9,2.1l-2.5,0c-0.2,0-0.9-0.8-0.9-2.1v-40.2
				c0-1.3,0.7-2.1,0.9-2.1h2.5c0.2,0,0.9,0.8,0.9,2.1V477.1z M403.2,429.6c-1.2,0-2.1-1-2.1-2.1s1-2.1,2.1-2.1s2.1,1,2.1,2.1
				S404.4,429.6,403.2,429.6z M403.2,412.7c1.9,0,3.5,1.6,3.5,3.5s-1.6,3.5-3.5,3.5c-1.9,0-3.5-1.6-3.5-3.5S401.3,412.7,403.2,412.7
				z M395.9,436.9v3.3l-8.8-2.9l9.1-2.6C396,435.3,395.9,436.1,395.9,436.9z M344.7,423.2c-2.5-0.8-3.9-3.6-3-6.1
				c0.4-1.2,1.3-2.2,2.4-2.8c1.2-0.6,2.5-0.7,3.7-0.3l46.8,15.6l-16.4,4.7L344.7,423.2z M378.1,439.8l16.1,5.4l-49,14.1
				c-2.6,0.7-5.2-0.7-6-3.3c-0.7-2.6,0.7-5.2,3.3-6L378.1,439.8z"/>
		</g>
		<g id="XMLID_8_">
			<path id="XMLID_71_" class="st0" d="M635.1,401.5c-6,6-3.3,16.9-0.6,27.5c1.6,6.6,3.3,13.3,2.2,16.9c-2.7,8.3-1.2,16.5,3.8,21.4
				c2,1.9,5.6,4.4,11.6,4.4c2.7,0,5.9-0.5,9.6-1.9c7.9-2.8,16.9-8.5,22-11.9v14.2c0,4,2.6,7.1,5.9,7.1h2.4c3.3,0,5.9-3.1,5.9-7.1
				v-14.2c5.1,3.4,14.1,9.1,22,11.9c3.7,1.3,6.9,1.9,9.6,1.9c5.9,0,9.6-2.5,11.6-4.4c5-4.8,6.5-13,3.8-21.4
				c-1.2-3.6,0.5-10.4,2.2-16.9c2.6-10.6,5.4-21.5-0.6-27.5c-9.8-9.9-27,0.6-49.7,19.8c-0.1-0.1-0.2-0.2-0.3-0.4
				c1.7-1.5,2.8-3.8,2.8-6.2c0-4.6-3.8-8.4-8.4-8.4s-8.4,3.8-8.4,8.4c0,2.5,1.1,4.7,2.8,6.2c-0.1,0.1-0.2,0.2-0.3,0.4
				C662.2,402.1,645,391.7,635.1,401.5z M697.5,427.5c25.4-21.8,39-28.5,45.2-22.3c3.9,3.9,1.4,13.8-0.7,22.5
				c-1.9,7.6-3.7,14.8-2.1,19.8c2.1,6.4,1.1,12.6-2.4,16c-3.4,3.3-9,3.8-15.8,1.3c-9.1-3.3-20.3-10.9-23.8-13.3v-17.4
				c0-1.8-0.5-3.4-1.4-4.7C696.9,428.9,697.3,428.2,697.5,427.5z M692.6,472.1c0,1.1-0.5,1.8-0.7,1.8l-2.3,0
				c-0.2-0.1-0.7-0.7-0.7-1.9v-37.9c0-1.1,0.5-1.8,0.7-1.8h2.4c0.2,0.1,0.7,0.8,0.7,1.8V472.1z M690.8,427.1c-1,0-1.9-0.8-1.9-1.9
				c0-1,0.8-1.9,1.9-1.9s1.9,0.8,1.9,1.9C692.6,426.3,691.8,427.1,690.8,427.1z M690.8,411.5c1.7,0,3.2,1.4,3.2,3.2
				c0,1.7-1.4,3.2-3.2,3.2s-3.2-1.4-3.2-3.2C687.6,413,689,411.5,690.8,411.5z M683.7,434.2v17.4c-3.5,2.4-14.7,10.1-23.8,13.3
				c-6.8,2.4-12.4,2-15.8-1.3c-3.6-3.4-4.5-9.6-2.4-16c1.6-5-0.2-12.2-2.1-19.8c-2.2-8.7-4.7-18.6-0.7-22.5
				c6.2-6.2,19.8,0.4,45.2,22.3c0.2,0.7,0.6,1.4,1.1,2C684.2,430.7,683.7,432.4,683.7,434.2z"/>
		</g>
		<g id="XMLID_7_">
			<path id="XMLID_67_" class="st0" d="M953.4,390.3h-4.9c-3.5,0-6.3,2.8-6.3,6.4c0,0.6-0.5,1.1-1.1,1.1h-6c-4.4,0-8,3.4-8.1,7.7
				c-0.1,2.2,0.7,4.2,2.2,5.8c1.5,1.6,3.5,2.4,5.7,2.4h6.2c0.6,0,1.1,0.5,1.1,1.1v24.3c0,7.1,3.9,13.6,10.2,17
				c1.2,0.6,1.9,1.8,1.9,3v27.5h14.2v-24.9c0-1.9,1.5-3.4,3.4-3.4h28.7c2.5,5.7,7.2,8.9,10.7,10.5v17.7h14.2v-35
				c0.7-2.1,3.8-12.1,4.4-16c0.4-3.3-0.6-6.5-2.9-9.1c-2.6-3-6.6-4.8-10.7-4.8h-4.1c-0.4,0-0.7-0.2-0.9-0.5l-4.2-7
				c-1.1-1.9-3.1-3-5.3-3c0,0-0.1,0-0.1,0c-2.2,0-4.2,1.1-5.3,2.9l-4.5,7.1c-0.2,0.3-0.6,0.5-0.9,0.5h-0.6c-0.4,0-0.7-0.2-0.9-0.5
				l-4.2-7c-1.1-1.9-3.1-3-5.3-3c0,0,0,0-0.1,0c-2.2,0-4.2,1.1-5.3,2.9l-4.5,7.1c-0.2,0.3-0.6,0.5-0.9,0.5c-0.6,0-1.1-0.5-1.1-1.1
				v-16C967.7,396.7,961.3,390.3,953.4,390.3z M968.8,426.9c2.2,0,4.2-1.1,5.3-2.9l4.5-7.1c0.3-0.4,0.7-0.5,0.9-0.5
				c0.2,0,0.7,0.1,0.9,0.5l4.2,7c1.1,1.9,3.2,3,5.4,3h0.6c2.2,0,4.2-1.1,5.3-2.9l4.5-7.1c0.3-0.5,0.7-0.5,0.9-0.5
				c0.2,0,0.7,0.1,0.9,0.5l4.2,7c1.1,1.9,3.2,3,5.4,3h4.1c2.5,0,5.1,1.2,6.7,3c0.9,1,1.9,2.7,1.6,4.9c-0.4,3.2-3.2,12.3-4.3,15.5
				l-0.1,0.4v30.6h-3.8v-16l-1.7-0.7c-2.9-1.1-8.1-3.9-10-9.8l-0.6-1.8h-32.4c-4.7,0-8.6,3.9-8.6,8.6v19.6h-3.8v-22.2
				c0-3.2-1.8-6.1-4.7-7.6c-4.6-2.4-7.4-7.2-7.4-12.3v-24.3c0-3.5-2.9-6.4-6.4-6.4h-6.2c-0.7,0-1.4-0.3-1.9-0.8
				c-0.5-0.5-0.8-1.2-0.8-2c0-1.4,1.4-2.6,2.9-2.6h6c3.4,0,6.3-2.8,6.4-6.2c0-0.6,0.4-1.3,1.1-1.3h4.9c5,0,9.1,4.1,9.1,9.1v16
				C962.5,424.1,965.3,426.9,968.8,426.9z"/>
		</g>
		<g id="XMLID_1_">
			<path id="XMLID_92_" class="st0" d="M44.9,218.2c-0.5,0-0.8,0.5-0.8,0.9c0,0.5,0.4,0.8,0.9,0.8c0,0,0,0,0.1,0l10.7-0.8
				c0,0.7,0.1,1.2,0.1,1.3l0.1,1l0.7,0.7c0.1,0.1,1.3,1.3,3.3,2.8l-12.6,5c-0.4,0.2-0.7,0.7-0.5,1.1c0.1,0.3,0.5,0.5,0.8,0.5
				c0.1,0,0.2,0,0.3-0.1l13.5-5.4c4.5,3.2,11.8,7.4,20.3,8.1V263h16.5v-12c0-0.6,0.5-1.1,1.1-1.1h34.9c0.6,0,1.1,0.5,1.1,1.1v12H152
				v-34.6c0-2.8-0.5-5.4-1.3-7.9c17.7-10.3,22.9-27.9,13.8-47.7c-0.8-1.7-2.2-3-3.9-3.6c-1.7-0.6-3.6-0.6-5.3,0.2
				c-1.7,0.8-3,2.2-3.6,3.9c-0.6,1.7-0.6,3.6,0.2,5.3c6.3,13.6,3.1,23.9-9.4,30.5c-4.1-3.1-9.2-5-14.7-5h-15.6
				c-0.3-1.7-0.7-3.5-1.2-5.2c3.1-2.7,8.5-9.1,8.6-20.8l0-2.4l-2.4-0.2c-9.8-0.9-16.4,2.8-19.5,5c-3.8-2.1-8.2-3.2-13.3-3.2
				c-5,0-9.3,1.1-13.1,3.3c-2.9-2.2-9.7-6-19.6-5.2l-2.4,0.2l0,2.4c0.2,12.2,6,18.6,9,21.1c-1,3.4-1.6,6.8-1.9,9.9l-10.2-2.3
				c-0.5-0.1-0.9,0.2-1,0.7c-0.1,0.5,0.2,0.9,0.7,1l10.4,2.3c-0.2,2.6-0.3,4.9-0.3,6.6L44.9,218.2z M156.5,176.5
				c-0.2-0.4-0.2-0.9-0.1-1.3c0.2-0.4,0.5-0.8,0.9-1c0.4-0.2,0.9-0.2,1.3-0.1c0.4,0.2,0.8,0.5,1,0.9c8,17.4,4,31.8-11.3,40.8
				c-0.6-1-1.3-2-2-2.8C160.1,204.9,163.7,192.1,156.5,176.5z M112.1,222.1l0.7-0.7l0.1-0.9c0-0.1,0.1-0.6,0.1-1.4l10.7,0.8
				c0,0,0,0,0.1,0c0.5,0,0.8-0.3,0.9-0.8c0-0.5-0.3-0.9-0.8-0.9l-10.8-0.8c0-1.7,0-4-0.1-6.6l6.1-1.4h8.7c10.5,0,19,8.5,19,19v29.4
				h-6V251c0-3.5-2.9-6.4-6.4-6.4H99.4c-3.5,0-6.4,2.9-6.4,6.4v6.8h-6v-23.6c8.4-0.7,15.7-4.9,20.2-8.1l13.5,5.4
				c0.1,0,0.2,0.1,0.3,0.1c0.3,0,0.7-0.2,0.8-0.5c0.2-0.4,0-1-0.5-1.1l-12.6-5C110.8,223.4,112,222.2,112.1,222.1z M114.2,180.5
				c-0.6,6.5-3.1,10.6-5.2,12.9c-1.3-2.9-3-5.7-5.2-8.1c-0.5-0.6-1-1.1-1.6-1.6C104.6,182.3,108.7,180.6,114.2,180.5z M84.4,182.5
				c6.5,0,11.7,2.1,15.5,6.3c5.3,5.8,7.1,14.6,7.7,21.3l-9,2c-0.5,0.1-0.8,0.6-0.7,1c0.1,0.4,0.5,0.7,0.8,0.7c0.1,0,0.1,0,0.2,0
				l8.7-2c0.1,2,0.1,3.7,0.1,5.1l-8.6-0.6c-0.5,0-0.9,0.3-0.9,0.8c0,0.5,0.3,0.9,0.8,0.9l8.7,0.6c0,0.1,0,0.2,0,0.3
				c-0.9,0.8-2.5,2.1-4.6,3.6l-4.6-1.8c-0.4-0.2-1,0-1.1,0.5c-0.2,0.4,0,1,0.5,1.1l3.4,1.4c-4.4,2.7-10.4,5.4-16.9,5.4
				c-6.5,0-12.5-2.7-16.9-5.4l3.4-1.4c0.4-0.2,0.7-0.7,0.5-1.1c-0.2-0.4-0.7-0.7-1.1-0.5l-4.6,1.8c-2.1-1.4-3.7-2.8-4.6-3.5
				c0-0.1,0-0.2,0-0.3l8.6-0.6c0.5,0,0.8-0.5,0.8-0.9c0-0.5-0.5-0.8-0.9-0.8L61,217c0-1.3,0.1-3.1,0.2-5l8.5,1.9c0.1,0,0.1,0,0.2,0
				c0.4,0,0.8-0.3,0.8-0.7c0.1-0.5-0.2-0.9-0.7-1l-8.7-2c0.7-6.9,2.8-15.9,8.2-21.7C73.4,184.5,78.2,182.5,84.4,182.5z M54.6,180.5
				c5.7,0,9.9,1.9,12.3,3.4c-0.4,0.3-0.7,0.7-1.1,1.1c-2.4,2.6-4.3,5.6-5.7,8.9C58,191.6,55.3,187.4,54.6,180.5z"/>
			<path id="XMLID_54_" class="st0" d="M84.4,208.7c-7.4,0-6.2,5.4,0,8.7C90.6,214.1,91.9,208.7,84.4,208.7z"/>
		</g>
		<g id="XMLID_4_">
			<path id="XMLID_64_" class="st0" d="M953.7,217.8c-7.4,0-6.2,5.4,0,8.7C959.9,223.1,961.1,217.8,953.7,217.8z"/>
			<path id="XMLID_101_" class="st0" d="M988.8,187.2l0-2.4l-2.4-0.2c-9.8-0.9-16.4,2.8-19.5,5c-3.8-2.1-8.2-3.2-13.3-3.2
				c-5,0-9.4,1.1-13.1,3.3c-2.9-2.2-9.7-6-19.6-5.1l-2.4,0.2l0,2.4c0.2,12.1,5.9,18.6,8.9,21.1c-0.9,3.3-1.6,6.9-2,10.8l-0.2,1.9
				l1.7,0.8c0.1,0.1,14.1,6.6,14.4,17.5l0.1,1.8l1.7,0.6c2.7,0.9,5.3,1.5,7.9,1.7v28.8h16.5v-12c0-0.6,0.5-1.1,1.1-1.1h34.9
				c0.6,0,1.1,0.5,1.1,1.1v12h16.5v-34.6c0-2.8-0.5-5.4-1.3-7.9c17.7-10.3,22.9-27.9,13.8-47.7c-0.8-1.7-2.2-3-3.9-3.6
				c-1.7-0.6-3.6-0.6-5.3,0.2c-3.5,1.6-5,5.8-3.4,9.3c6.3,13.6,3.1,23.9-9.4,30.5c-4.1-3.1-9.2-5-14.7-5h-15.6
				c-0.3-1.8-0.7-3.6-1.2-5.3C983.3,205.3,988.6,198.9,988.8,187.2z M923.9,189.6c5.7,0,9.8,1.9,12.2,3.3c-2.7,2.6-5,5.9-6.7,9.9
				C927.3,200.6,924.5,196.4,923.9,189.6z M946.5,237.2c-1.4-10.5-11.5-17-15.6-19.3c1.6-12.4,6.9-26.3,22.8-26.3
				c16.4,0,21.6,13.7,23,25.8c-4.1,2.3-14.3,9.2-15.7,19.7c-2.5,0.7-4.9,1-7.3,1C951.3,238.2,948.9,237.8,946.5,237.2z
				 M1025.8,185.5c-0.4-0.9,0-1.9,0.9-2.3c0.4-0.2,0.9-0.2,1.3-0.1c0.4,0.2,0.8,0.5,1,0.9c8,17.4,4,31.8-11.3,40.8
				c-0.6-1-1.3-1.9-2-2.8C1029.4,214,1033,201.1,1025.8,185.5z M981,239.2l2.1-20.8h5.6l2.7,20.8l2.1-20.8h3.3
				c0.8,0,1.5,0.1,2.3,0.1l2.7,20.6l2-19.4c7,2.8,12,9.7,12,17.7v29.4h-6v-6.8c0-3.5-2.9-6.4-6.4-6.4h-34.9c-3.5,0-6.4,2.9-6.4,6.4
				v6.8h-6v-23.6c2.6-0.2,5.3-0.8,7.9-1.7l1.7-0.6l0.1-1.8c0.1-3.6,1.7-6.8,3.9-9.4l1.2,9.5l1.3-12.2c2.3-2.2,4.8-3.9,6.4-4.8
				L981,239.2z M978.2,202.5c-1.7-3.9-4-7.2-6.8-9.7c2.4-1.4,6.5-3.2,11.9-3.2C982.8,196.1,980.3,200.2,978.2,202.5z"/>
		</g>
		<g id="XMLID_2_">
			<path id="XMLID_68_" class="st0" d="M387.4,205.9c-5.6,0-4.6,4,0,6.5C392,209.9,392.9,205.9,387.4,205.9z"/>
			<path id="XMLID_109_" class="st0" d="M365.4,208.3l0,0.5l0.2,0.4c0.8,1.7,6.3,13.4,14.4,18.4v31.9h16.5v-12
				c0-0.6,0.5-1.1,1.1-1.1h34.9c0.6,0,1.1,0.5,1.1,1.1v12h16.5v-34.6c0-2.5-0.4-5-1.1-7.3c0.8,0.1,1.5,0.1,2.3,0.1
				c7,0,13.1-2.6,16.9-7.3c3.5-4.4,8.1-14.7-1.2-33.6l-2.2-4.4l-2.4,4.3c-1.8,3.2-5.4,5.3-9.2,7.5c-6.6,3.8-14.5,8.4-14.4,20.3
				c-3.7-2.4-8.2-3.7-12.9-3.7h-16.6c-0.2-3.3-0.9-7.2-2.2-11c0-2.8-0.2-16.3-4.4-31.2l-1.9-6.9l-3,6.6c-3.2,7-5.1,13.9-5.9,17.6
				c-1.4-0.3-3-0.4-4.5-0.4c-1.6,0-3.1,0.2-4.5,0.5c-0.9-3.7-2.7-10.7-5.9-17.7l-3-6.6l-1.9,6.9c-4.1,14.9-4.1,28.4-4,31.2
				C364.7,198.3,365.3,207.7,365.4,208.3z M455.8,188.7c2.9-1.7,5.9-3.4,8.3-5.7c4.3,10.4,4.4,18.9,0.1,24.2
				c-3.6,4.5-10.4,6.4-17.7,4.9c-0.6-0.9-1.2-1.7-1.8-2.5C442,196.6,448.4,192.9,455.8,188.7z M409.1,209.2l0.2-0.4l0-0.4
				c0-0.2,0.1-1.1,0.1-2.5h16.4c10.5,0,19,8.5,19,19v29.4h-6v-6.8c0-3.5-2.9-6.4-6.4-6.4h-34.9c-3.5,0-6.4,2.9-6.4,6.4v6.8h-6v-24.5
				c0.7,0.1,1.4,0.2,2.2,0.2C399.4,229.9,408.1,211.3,409.1,209.2z M399.6,167.9c0.9,4.7,1.5,9.1,1.8,12.6c-1.3-1.3-2.8-2.3-4.5-3.2
				C397.3,175.3,398.2,171.9,399.6,167.9z M375.1,168c1.4,4,2.2,7.5,2.7,9.5c-1.6,0.8-3,1.9-4.4,3.2
				C373.7,177.2,374.2,172.8,375.1,168z M376.8,184.8c2.7-2.9,6.2-4.3,10.6-4.3c4.7,0,8.4,1.5,11.1,4.5c6.3,7,5.8,19.9,5.7,22.4
				c-2.4,5.2-9.6,17.3-16.8,17.3c-7.2,0-14.4-12-16.8-17.2C370.5,204.9,370.3,191.7,376.8,184.8z"/>
		</g>
		<g id="XMLID_10_">
			<path id="XMLID_87_" class="st0" d="M92.5,426.8c-5.8,0-4.8,4.2,0,6.8C97.4,431,98.3,426.8,92.5,426.8z"/>
			<path id="XMLID_119_" class="st0" d="M55.9,432.2l-0.8,1.2l0.6,1.3c3.3,7,11.5,12.8,19.5,18.4c5.4,3.8,10.8,7.6,13.3,11.1v21.4
				h16.5v-12c0-0.6,0.5-1.1,1.1-1.1h34.9c0.6,0,1.1,0.5,1.1,1.1v12h16.5V451c0-2.8-0.5-5.4-1.3-7.9c17.7-10.3,22.9-27.9,13.8-47.7
				c-0.8-1.7-2.2-3-3.9-3.6c-1.7-0.6-3.6-0.6-5.3,0.2c-1.7,0.8-3,2.2-3.6,3.9c-0.6,1.7-0.6,3.6,0.2,5.3c6.3,13.6,3.1,23.9-9.4,30.5
				c-4.1-3.1-9.2-5-14.7-5h-8.4c-1.9-3.6-4.4-8.5-6.5-13.7c-0.2-0.5-0.4-1-0.6-1.5c0.8-2.3,1.4-5.1,1.5-8.5l0-2.4l-2.4-0.2
				c-2.7-0.2-5.1,0-7.1,0.4c-5.1-4.2-11.3-6.4-18.3-6.4c-7,0-13.3,2.2-18.3,6.5c-2.1-0.5-4.6-0.7-7.3-0.4l-2.4,0.2l0,2.4
				c0,3.5,0.7,6.4,1.6,8.8c-0.2,0.4-0.4,0.8-0.5,1.2C61.6,423.1,56,432.1,55.9,432.2z M163.3,399c-0.2-0.4-0.2-0.9-0.1-1.3
				c0.2-0.4,0.5-0.8,0.9-1c0.4-0.2,0.9-0.2,1.3-0.1c0.4,0.2,0.8,0.5,1,0.9c8,17.4,4,31.8-11.3,40.8c-0.6-1-1.3-1.9-2-2.8
				C166.9,427.5,170.5,414.6,163.3,399z M129.3,432.2c0,0-0.1-0.1-0.2-0.3h5.4c10.5,0,19,8.5,19,19v29.4h-6v-6.8
				c0-3.5-2.9-6.4-6.4-6.4h-34.9c-3.5,0-6.4,2.9-6.4,6.4v6.8h-6v-12.9l1.4,0c0.2-4,7.6-9.2,14.7-14.3c7.9-5.6,16.2-11.4,19.5-18.4
				l0.6-1.3L129.3,432.2z M115,405.5c-0.5,4-1.9,6.7-3.3,8.4c-1.2-2.5-2.7-4.6-4.4-6.4C109,406.6,111.6,405.6,115,405.5z
				 M109.6,424.6c-2.6,2.2-8.2,7.8-8.5,15.7c-2.9,1.2-5.8,1.8-8.5,1.8c-2.7,0-5.5-0.6-8.5-1.8c-0.4-7.9-5.8-13.5-8.4-15.7
				c2.1-11.7,7.7-17.6,16.8-17.6C101.9,407.1,107.7,413,109.6,424.6z M92.6,399.6c4.5,0,8.7,1.1,12.3,3.3c-0.8,0.4-1.6,0.9-2.1,1.3
				c-3-1.6-6.4-2.4-10.3-2.4c-3.8,0-7.2,0.8-10.2,2.5c-0.6-0.4-1.3-0.9-2.1-1.3C83.8,400.7,88,399.6,92.6,399.6z M77.9,407.7
				c-1.7,1.8-3.2,4-4.4,6.6c-1.4-1.7-3-4.5-3.5-8.7C73.5,405.7,76.2,406.7,77.9,407.7z M69.4,417.5c0.7,0.9,1.4,1.6,2,2.1
				c-0.5,1.8-0.9,3.7-1.2,5.7l-0.2,1.6l1.3,0.9c0.1,0.1,7.9,5.8,7.5,14l-0.1,1.7l1.6,0.8c4.1,2,8.2,3,12.2,3c4,0,8.1-1,12.3-3
				l1.6-0.8l-0.1-1.7c-0.4-8.1,7.4-13.9,7.6-14l1.3-0.9l-0.2-1.6c-0.3-2.1-0.7-4.1-1.2-5.9c0.6-0.5,1.3-1.2,1.9-2.1
				c3.1,7.4,6.8,13.7,8.3,16.4c-3.2,5.3-10.3,10.3-17.1,15.2c-5.9,4.2-11.3,7.9-14.3,11.9c-3-4-8.4-7.8-14.3-11.9
				c-6.9-4.9-14-9.9-17.1-15.2C62.7,431.1,66.3,424.8,69.4,417.5z"/>
		</g>
		<g id="XMLID_6_">
			<path id="XMLID_106_" class="st0" d="M1355.9,454.1l-26.7-10.6l-3.4-9.9l-8.1,5.4l-6-2.4l-3.2-9.4l-7.7,5.1l-4.5-1.8
				c-0.4-0.1-0.8-0.3-1.1-0.4l-3-8.8l-7.9,5.3c-9.4-2.5-19.1-3.8-28.9-3.8c-14.4,0-28.4,2.7-41.8,8.1l-21.9,8.9
				c-2.8,1.1-4.6,3.9-4.6,6.9c0,4.1,3.3,7.4,7.4,7.4H1355.9z M1192.3,446.7c0-0.9,0.5-1.7,1.4-2.1l21.9-8.9
				c12.7-5.2,26.1-7.8,39.8-7.8c13.4,0,26.5,2.5,39,7.4l34,13.5h-71.1c1.1-3.3,4.2-5.7,7.9-5.7V438c-6.6,0-12.1,4.7-13.3,10.9h-26.7
				c1.1-3.3,4.2-5.7,7.9-5.7V438c-6.6,0-12.1,4.7-13.3,10.9h-25.4C1193.3,448.9,1192.3,447.9,1192.3,446.7z"/>
		</g>
		<g id="XMLID_11_">
			<path id="XMLID_128_" class="st0" d="M121.1,618c-0.7,0.2-16,5.6-20.7,20.6c-19.2,1.9-36.5,8.9-47.5,19.5l-1.9,1.9l1.9,1.9
				c12.9,12.5,34.6,20,58,20c8.2,0,16.3-0.9,23.8-2.7c5.6,6.7,14.5,6.9,14.9,6.9l3.8,0.1l-4.3-11.7c4.1-1.8,8-3.8,11.5-6.1
				c3.1,4,8.8,6.9,15.4,7.9l6.7,1l-4.3-5.3c-2.9-3.5-4.3-7.3-4.3-11.2c0-3.9,1.5-7.6,4.3-11.1l4.3-5.3l-6.7,1
				c-5.9,0.9-11.1,3.4-14.4,6.7c-2.9-2-6-3.8-9.3-5.3l6.3-13.6l-3.8-0.2c-0.5,0-12.1-0.7-19.4,7.9c-3.8-0.9-7.7-1.6-11.7-2.1
				l0.9-22.1L121.1,618z M119.2,624.6l-0.6,13.7c-2.5-0.2-5.1-0.3-7.7-0.3c-1.6,0-3.2,0-4.8,0.1C109.1,631,115.2,626.7,119.2,624.6z
				 M140.6,677.5c1.3-0.4,2.5-0.8,3.7-1.2l1.4,3.8C144.1,679.6,142.3,678.8,140.6,677.5z M150.5,638.5l-2.9,6.2
				c-2.1-0.8-4.2-1.6-6.3-2.2C144.3,640,147.8,639,150.5,638.5z M160.6,657.8l2.2,1.7l1.5-2.3c1.3-2,3.6-3.7,6.4-4.9
				c-1.2,2.8-1.8,5.6-1.8,8.5c0,2.9,0.6,5.8,1.8,8.5c-3.3-1.4-5.9-3.5-7-5.9l-1.3-2.9l-2.6,1.9c-12.3,8.9-30.2,14.1-49,14.1
				c-20.8,0-40.1-6.2-52.3-16.7c12.2-10.5,31.4-16.7,52.3-16.7C130.2,643.2,148.3,648.5,160.6,657.8z"/>
			<circle id="XMLID_88_" class="st0" cx="77.2" cy="655.6" r="2.6"/>
		</g>
		<g id="XMLID_12_">
			<path id="XMLID_132_" class="st0" d="M401,694.7l2.8-8.2c7.7,2.5,17,3.7,28.1,3.7c5.2,0,10.8-0.3,16.9-0.8l5.4-0.5l-57-59.7
				c-2.8-3-4.9-6.8-6.1-11.2l0-0.1c-1.6-5.8-6.7-10.1-12.7-10.5c-4-0.3-7.9,1-10.9,3.8c-2.7,2.5-4.4,6.1-4.6,9.8l-12,8.8l15.4,1.2
				c0.8,0.9,1.7,1.7,2.7,2.4c1.9,1.3,3,3.3,3.1,5.5c0.9,17.7,5.9,30.3,15.5,38.7c1,0.9,2.1,1.7,3.2,2.5l-4.5,12.8l4.9,1.7l4.2-11.8
				c1.2,0.6,2.4,1.2,3.7,1.7L396,693L401,694.7z M390.9,673.7c-8.5-7.4-13-18.8-13.7-35c-0.2-3.8-2.1-7.3-5.3-9.5
				c-2.4-1.7-3.9-4.5-3.9-7.5c0-2.6,1-4.9,2.9-6.7c1.7-1.6,3.9-2.4,6.2-2.4c0.2,0,0.5,0,0.7,0c3.8,0.3,7.1,3,8.1,6.8l0,0
				c1.4,5.2,3.9,9.8,7.3,13.4l49.5,51.8C417.8,686.2,401.2,682.7,390.9,673.7z"/>
		</g>
		<g id="XMLID_13_">
			<path id="XMLID_135_" class="st0" d="M682.9,645.6c0-6-6-10.7-13.6-10.7s-13.6,4.7-13.6,10.7c0,6,6,10.7,13.6,10.7
				S682.9,651.6,682.9,645.6z M660.9,645.6c0-2.9,3.8-5.4,8.4-5.4s8.4,2.5,8.4,5.4s-3.8,5.4-8.4,5.4S660.9,648.5,660.9,645.6z"/>
			<circle id="XMLID_89_" class="st0" cx="665.8" cy="645.6" r="1.6"/>
			<circle id="XMLID_114_" class="st0" cx="672.8" cy="645.6" r="1.6"/>
			<path id="XMLID_144_" class="st0" d="M700.4,614l0-2.4l-2.4-0.2c-6.1-0.5-10.2,1.8-12.1,3.2c-4.5-3.6-10.1-5.5-16.7-5.5
				c-6.5,0-12,1.9-16.4,5.6c-1.8-1.4-6-3.9-12.3-3.3l-2.4,0.2l0,2.4c0.1,8.2,4.4,12.2,6.1,13.5c-1.3,3.5-2.3,7.4-2.9,11.8
				c-1.3,9.4,3.5,18.5,11.9,22.7c4.5,2.3,9,3.6,13.4,3.9v28.8h16.5v-12c0-0.6,0.5-1.1,1.1-1.1h34.9c0.6,0,1.1,0.5,1.1,1.1v12h16.5
				v-34.6c0-5.2-1.7-10.1-4.5-14.1c1.2-0.5,2.3-1,3.4-1.8c1.2-0.9,2.1-2,2.7-3.2c0.9-0.4,1.6-1.1,2.2-1.9c1.4-1.9,2-4.6,1.5-6.9
				c-0.7-3-3.2-5.4-6.1-6.1c-0.7-0.1-1.4,0.3-1.6,1c-0.2,0.7,0.3,1.4,1,1.6c2,0.4,3.7,2.1,4.1,4.1c0.3,1.3,0.1,2.8-0.6,4.1
				c-0.6-2.3-2.8-4.6-5-4.9c-1.6-0.2-2.9,0.4-3.6,1.7c-0.9,1.6-0.7,4.1,0.5,5.6c1,1.2,2.4,2.1,3.9,2.3c-0.2,0.2-0.4,0.3-0.6,0.5
				c-1,0.8-2.3,1.3-3.5,1.8c-4.4-4.9-10.9-8-18-8h-15.6c-0.5-3.1-1.3-6-2.3-8.6C696.4,625.8,700.3,621.8,700.4,614z M732.8,637.8
				c-0.6-0.7-0.7-2-0.3-2.7c0.1-0.2,0.3-0.4,0.8-0.4c0.1,0,0.2,0,0.2,0c1.3,0.2,2.8,2,2.9,3.4c0,0.3,0,0.7-0.1,1
				c-0.2,0-0.4,0.1-0.5,0.1C734.6,639.2,733.5,638.7,732.8,637.8z M643.5,616.6c2.6,0.2,4.5,1.2,5.6,1.9c-1,1.2-1.9,2.6-2.7,4.1
				C645.4,621.6,644.1,619.7,643.5,616.6z M655.5,657.3c-6.4-3.2-10.1-10.1-9.1-17.3c1.6-11.7,6.9-25.8,22.7-25.8
				c16.6,0,21.7,14.1,23,25.9c0.8,7-2.9,13.8-9.2,17c-4.8,2.4-9.4,3.6-13.9,3.6C664.8,660.8,660.2,659.7,655.5,657.3z M697.5,641.1
				h15c10.5,0,19,8.5,19,19v29.4h-6v-6.8c0-3.5-2.9-6.4-6.4-6.4h-34.9c-3.5,0-6.4,2.8-6.4,6.4v6.8h-6v-23.6c4.4-0.4,9-1.8,13.6-4.1
				C693.2,657.9,697.9,649.7,697.5,641.1z M692.3,622.3c-0.8-1.4-1.7-2.8-2.7-4c1.1-0.7,2.9-1.5,5.3-1.7
				C694.4,619.4,693.2,621.2,692.3,622.3z"/>
		</g>
		<g id="XMLID_14_">
			<path id="XMLID_149_" class="st0" d="M930.4,685.6v1.4c0,6.1,5,11,11,11h73.8c6.1,0,11-5,11-11v-1.4c0-6.1-5-11-11-11h-1.3
				c1.1-1.7,1.7-3.7,1.7-5.9v-1.4c0-6.1-5-11-11-11h-5.7c4.2-11.4,7.1-25.9,1-36.9c-3.1-5.6-9.6-12.3-23.3-13.5l0-0.1l-2.6,0
				c-10-0.1-17.9,2.3-22.4,6.7c-2.2,2.2-3.5,4.9-3.5,7.5c-3.9,2.1-6.5,6.2-6.8,6.7l4.5,2.7c0.6-1,2.7-3.8,5.1-5
				c3.6,2.1,10,2.3,16,2.4c2,0.1,3.9,0.1,5.3,0.2c0.5,0.1,0.9,0.1,1.3,0.2c0.2,0,0.5,0.1,0.7,0c2.6,0.2,5.9,0.7,6.9,2.5
				c2.2,4-0.2,15.2-5.6,26.5h-23.5c-6.1,0-11,5-11,11v1.4c0,2.2,0.6,4.2,1.7,5.9h-1.3C935.3,674.6,930.4,679.5,930.4,685.6z
				 M985.7,627.3c-1.8-3.2-5.5-4.9-11.3-5.2l-0.1,0l-0.1,0l-0.3,0c-0.2,0-0.5,0-0.8-0.1l-0.3,0c-1.6-0.1-3.6-0.2-5.7-0.3
				c-3.7-0.1-12.2-0.3-13.6-1.8c0.1-1.2,0.7-2.5,1.9-3.6c3.2-3.2,9.5-5.1,17.3-5.2l1.6,0c12.7,0.5,18.5,6.2,21.1,10.9
				c5.4,9.8,2.1,23.8-2.1,34.3h-12C984.5,649.3,989.9,634.8,985.7,627.3z M946.3,667.3c0-3.2,2.6-5.8,5.8-5.8H973h23.9h7.7
				c3.2,0,5.8,2.6,5.8,5.8v1.4c0,3.2-2.6,5.8-5.8,5.8h-52.5c-3.2,0-5.8-2.6-5.8-5.8V667.3z M1015.3,679.8c3.2,0,5.8,2.6,5.8,5.8v1.4
				c0,3.2-2.6,5.8-5.8,5.8h-73.8c-3.2,0-5.8-2.6-5.8-5.8v-1.4c0-3.2,2.6-5.8,5.8-5.8H1015.3z"/>
		</g>
		<g id="XMLID_15_">
			<path id="XMLID_155_" class="st0" d="M1248,597.5l-4.9-8.3v37.5c0,0-0.1,0-0.1,0c-7.8,0.4-23.3,9.6-25.2,18.3
				c-0.5,2.3-0.1,4.4,1.1,6.1c2.8,4,9.4,5.4,15.8,6.2v35.4c-5.4,1.7-7.1,8.3-7.2,12.1l-0.1,2.7h57l0-0.1c9.6-0.4,16.6-3.3,21.6-8.7
				c10.5-11.6,8.6-32,6.8-51.9c-1.4-15-2.7-29.2,1.3-38.1l1.9-4.2l-4.5,0.5c-10.7,1.1-19.3,5.9-25.4,14.1
				c-9.2,12.4-11.2,30.5-11,44.7c-7.3-15.2-16.7-23.9-19.5-26.2c-0.4-1.9-1.1-3.7-2.1-5.3C1258.3,627.9,1260,618.1,1248,597.5z
				 M1248.3,609.5c4.7,10.5,4.8,17.6,0.2,20.3l-0.2,0.1V609.5z M1223.1,648.2c-0.3-0.4-0.5-0.9-0.3-2c1.3-5.8,14-13.9,20.4-14.3
				c0.1,0,0.2,0,0.3,0c0.5,0,1,0.1,1.5,0.2l1.6,0.4l1.3,1.3c2.4,2.5,3.4,6.9,2.6,10.7c-1.3,5.7-6.2,8.7-12.9,8
				C1233.9,652.1,1225.2,651.1,1223.1,648.2z M1290.3,622.4c4.4-5.9,10.3-9.7,17.5-11.4c-2.7,9.8-1.5,22.8-0.2,36.4
				c1.7,18.7,3.5,38-5.4,47.9c-4,4.3-9.8,6.6-17.8,7c-0.2-6.2-1-12-2.1-17.3C1281.4,680.7,1275.4,642.5,1290.3,622.4z M1255.7,645.7
				c0-0.2,0.1-0.3,0.1-0.5c7.4,7.7,22.2,26.7,23.3,57.2h-46c0.5-2.1,1.7-4.7,4.2-4.7h2.7l-0.1-2.7c-0.1-3.2,0.7-5.7,2.6-7.7
				c4.2-4.4,11.9-4.7,12-4.7l-0.1-5.2c-0.4,0-8.8,0.3-14.5,5.2v-24.7C1247.9,657.7,1254,653.2,1255.7,645.7z"/>
		</g>
		<g id="XMLID_16_">
			<path id="XMLID_152_" class="st0" d="M152.6,819l-5-0.7c-3.7-0.5-7.4-0.8-11-0.8c-34.5,0-62.5,21.5-62.5,47.8
				c0,26.4,28,47.8,62.5,47.8c3.6,0,7.3-0.3,11-0.8l5-0.7l-3.5-3.7c-8-8.5-13.5-18.3-16.1-28.5c4.7,3.5,11,5.5,17.6,5.5
				c1.5,0,2.9-0.1,4.4-0.3l5-0.7l-3.5-3.7c-4.2-4.5-6.4-9.7-6.4-15.1c0-5.4,2.2-10.6,6.4-15.1l3.5-3.7l-5-0.7
				c-1.5-0.2-2.9-0.3-4.4-0.3c-6.7,0-12.9,2-17.6,5.5c2.6-10.2,8.2-20,16.1-28.5L152.6,819z M127.1,853.5c-0.3,1.6,0.5,3.2,2,4
				c1.8,1,4,0.7,5.3-0.7c3.6-3.5,9.1-5.7,15-5.9c-3,4.5-4.5,9.4-4.5,14.5s1.5,10.1,4.5,14.5c-5.9-0.3-11.5-2.4-15-5.9
				c-1.4-1.4-3.6-1.6-5.3-0.7c-1.5,0.8-2.3,2.4-2,4c2.1,10.8,7.2,21.2,14.8,30.5c-1.8,0.1-3.6,0.2-5.4,0.2
				c-31.6,0-57.3-19.1-57.3-42.6s25.7-42.6,57.3-42.6c1.8,0,3.6,0.1,5.4,0.2C134.3,832.2,129.2,842.7,127.1,853.5z"/>
			<circle id="XMLID_136_" class="st0" cx="90.6" cy="858.7" r="4.6"/>
		</g>
		<g id="XMLID_17_">
			<path id="XMLID_164_" class="st0" d="M360.9,874c0,23.3,19,42.3,42.3,42.3s42.3-19,42.3-42.3c0-18.3-11.7-33.9-28-39.8
				c-0.3-3.5-1.8-6.6-4.1-8.9l4.1-6.8l-4.5-2.7l-3.9,6.5c-1.9-0.9-3.9-1.4-6.1-1.4c-2.1,0-4.2,0.5-6,1.3l-3.9-6.4l-4.5,2.7l4,6.7
				c-2.3,2.4-3.9,5.5-4.2,9C372.5,840.1,360.9,855.7,360.9,874z M440.3,874c0,19.6-15.3,35.7-34.5,37v-74
				C425.1,838.3,440.3,854.4,440.3,874z M403.2,826.1c4.1,0,7.6,2.7,8.8,6.5c-2.8-0.6-5.8-0.9-8.8-0.9c-3.1,0-6,0.3-8.9,1
				C395.5,828.8,399,826.1,403.2,826.1z M400.6,837v74c-19.2-1.3-34.5-17.4-34.5-37C366.1,854.4,381.4,838.3,400.6,837z"/>
			<circle id="XMLID_137_" class="st0" cx="389.5" cy="853.1" r="4.3"/>
			<circle id="XMLID_159_" class="st0" cx="375.3" cy="868.5" r="4.3"/>
			<circle id="XMLID_160_" class="st0" cx="391.1" cy="877.1" r="4.3"/>
			<circle id="XMLID_161_" class="st0" cx="382.5" cy="894.5" r="4.3"/>
			<circle id="XMLID_167_" class="st0" cx="416.9" cy="853.1" r="4.3"/>
			<circle id="XMLID_168_" class="st0" cx="431.2" cy="868.5" r="4.3"/>
			<circle id="XMLID_169_" class="st0" cx="415.4" cy="877.1" r="4.3"/>
			<circle id="XMLID_170_" class="st0" cx="424" cy="894.5" r="4.3"/>
		</g>
		<g id="XMLID_18_">
			<path id="XMLID_175_" class="st0" d="M685.6,846.6c0-6.4-5.2-11.7-11.7-11.7c-6.4,0-11.7,5.2-11.7,11.7c0,6.4,5.2,11.7,11.7,11.7
				C680.3,858.3,685.6,853,685.6,846.6z M667.4,846.6c0-3.6,2.9-6.4,6.4-6.4c3.6,0,6.4,2.9,6.4,6.4c0,3.6-2.9,6.4-6.4,6.4
				C670.3,853.1,667.4,850.2,667.4,846.6z"/>
			<path id="XMLID_178_" class="st0" d="M719.4,846.6c0-6.4-5.2-11.7-11.7-11.7c-6.4,0-11.7,5.2-11.7,11.7c0,6.4,5.2,11.7,11.7,11.7
				C714.1,858.3,719.4,853,719.4,846.6z M701.2,846.6c0-3.6,2.9-6.4,6.4-6.4c3.6,0,6.4,2.9,6.4,6.4c0,3.6-2.9,6.4-6.4,6.4
				C704.1,853.1,701.2,850.2,701.2,846.6z"/>
			<path id="XMLID_184_" class="st0" d="M734.9,817.1l-5.2-0.1c-0.2,9.4-8.8,10.1-22,10.1c-7.2,0-13.5,3.9-16.9,9.8
				c-3.4-5.8-9.7-9.8-16.9-9.8c-13.2,0-21.9-0.7-22-10.1l-5.2,0.1c0.2,9.9,6.9,13.4,14.7,14.6c-4.3,3.6-7,8.9-7,14.9
				c0,6.3,3,12,7.7,15.5c-1.9,6-2.9,12.6-2.9,19.3c0,30.3,19.8,34.8,31.6,34.8s31.6-4.5,31.6-34.8c0-6.7-1-13.3-2.9-19.3
				c4.7-3.6,7.7-9.2,7.7-15.5c0-6-2.7-11.3-7-14.9C728,830.5,734.8,827,734.9,817.1z M694.7,867.1c0,3.5-1.4,6.9-3.9,9.4
				c-2.5-2.5-3.9-5.8-3.9-9.4c0-3.5,1.4-6.9,3.9-9.4C693.3,860.2,694.7,863.6,694.7,867.1z M659.6,846.6c0-7.9,6.4-14.3,14.3-14.3
				c7.9,0,14.3,6.4,14.3,14.3c0,7.9-6.4,14.3-14.3,14.3C666,860.9,659.6,854.5,659.6,846.6z M690.8,911.1c-17.5,0-26.4-10-26.4-29.6
				c0-5.8,0.8-11.5,2.4-16.7c2.2,0.9,4.6,1.4,7.1,1.4c2.8,0,5.5-0.6,7.9-1.7c-0.1,0.9-0.2,1.8-0.2,2.7c0,5.9,2.9,11.5,7.6,14.9
				l1.5,1.1l1.5-1.1c4.8-3.5,7.6-9,7.6-14.9c0-0.9-0.1-1.8-0.2-2.7c2.4,1.1,5.1,1.7,7.9,1.7c2.5,0,4.9-0.5,7.1-1.3
				c1.5,5.2,2.4,10.9,2.4,16.7C717.2,901.1,708.3,911.1,690.8,911.1z M722,846.6c0,7.9-6.4,14.3-14.3,14.3
				c-7.9,0-14.3-6.4-14.3-14.3c0-7.9,6.4-14.3,14.3-14.3C715.6,832.3,722,838.7,722,846.6z"/>
		</g>
		<g id="XMLID_19_">
			<path id="XMLID_188_" class="st0" d="M944.5,814.7c-5.5,0-9.9,4.4-9.9,9.9v0.4l-14.9,3.5l14.9,4.8v26.1c0,17.9,12.3,33,28.9,37.3
				v16.7h5.2v-15.7c1.4,0.2,2.9,0.2,4.3,0.2c0.7,0,1.3,0,2-0.1v15.5h5.2v-16.2c17.4-3.3,30.8-18.4,31.3-36.7
				c4.6-4.8,19.8-21.3,18.3-30.5c-0.4-2.3-1.7-4.2-3.9-5.3c-2.5-1.2-5-1.2-7.3,0c-8,4.4-11.1,24.2-12,32h-52.2v-32.2
				C954.4,819.2,949.9,814.7,944.5,814.7z M1021.1,829.4c0.3-0.2,0.6-0.3,1.1-0.3c0.4,0,0.8,0.1,1.4,0.4c0.8,0.4,1,0.9,1.1,1.4
				c0.7,4.1-5.6,13.1-12,20.7C1014.3,841.9,1017.3,831.5,1021.1,829.4z M998.7,862.1c-5.9,10.2-16.8,16.6-28.7,16.6v5.2
				c14.9,0,28.3-8.5,34.7-21.8h1.6c-1.3,17.1-15.7,30.6-33.2,30.6c-18.3,0-33.3-14.9-33.3-33.3v-34.8c0-2.6,2.1-4.7,4.7-4.7
				c2.6,0,4.7,2.1,4.7,4.7v37.5H998.7z"/>
		</g>
		<g id="XMLID_20_">
			<path id="XMLID_194_" class="st0" d="M1276.4,823.7c-2.1,0-4.1,0.3-6,0.9c-5.5-5.1-12.7-7.7-20.3-7.3c-6.5,0.4-12.5,3.2-17,7.4
				c-2.1-0.7-4.3-1.1-6.6-1.1c-11.7,0-21.2,9.5-21.2,21.2c0,11.7,9.5,21.2,21.2,21.2c2.5,0,4.9-0.4,7.2-1.3c2.4,2.1,5.2,3.9,8.3,5.1
				v0.2c0,4.1-3.3,7.5-7.5,7.5h-7.2c-4.7,0-8.6,3.7-8.8,8.3c-0.1,2.3,0.8,4.5,2.4,6.2c1.6,1.7,3.8,2.6,6.1,2.6h7.4
				c4.9,0,9.5-1.5,13.4-4v22.9h17.9v-13.2c0-0.9,0.7-1.6,1.6-1.6h39.4c0.9,0,1.6,0.7,1.6,1.6v13.2h17.9v-38.7c0-14.9-12.1-27-27-27
				h-2c0.1-1,0.2-1.9,0.2-2.9C1297.7,833.2,1288.1,823.7,1276.4,823.7z M1276.4,828.9c8.8,0,16,7.2,16,16c0,8.8-7.2,16-16,16
				c-0.9,0-1.8-0.1-2.7-0.2c3.4-4.6,5.3-10.2,5.3-16.1c0-5.5-1.7-10.9-4.8-15.4C1275,829,1275.7,828.9,1276.4,828.9z M1226.6,860.9
				c-8.8,0-16-7.2-16-16c0-8.8,7.2-16,16-16c0.9,0,1.9,0.1,2.8,0.2c-2.6,3.8-4.3,8.2-4.7,13c-0.6,6.7,1.4,13.2,5.2,18.4
				C1228.8,860.7,1227.7,860.9,1226.6,860.9z M1234.7,889.4h-7.4c-0.9,0-1.7-0.4-2.4-1c-0.6-0.6-1-1.5-0.9-2.4
				c0.1-1.8,1.6-3.2,3.5-3.2h7.2c7,0,12.7-5.7,12.7-12.7v-0.7c0-1.9-1.2-3.6-2.9-4.2c-9.4-3.4-15.3-12.6-14.5-22.6
				c0.9-10.8,9.7-19.4,20.5-20.1c6.2-0.4,12,1.7,16.5,5.9c4.5,4.2,6.9,9.9,6.9,16c0,10.1-6.8,18.8-16.6,21.3c-2,0.5-3.3,2.3-3.3,4.3
				C1253.9,880.7,1245.3,889.4,1234.7,889.4z M1299.5,853c12,0,21.8,9.8,21.8,21.8v33.5h-7.5v-8c0-3.8-3.1-6.8-6.8-6.8h-39.4
				c-3.8,0-6.8,3.1-6.8,6.8v8h-7.5V886c3.6-4.1,5.8-9.5,5.9-15.3c4-1.1,7.6-3.1,10.6-5.7c2.2,0.7,4.4,1.1,6.7,1.1
				c8.8,0,16.4-5.4,19.6-13.1H1299.5z"/>
		</g>
	</g>
	<g id="XMLID_23_">
		<path id="XMLID_191_" class="st0" d="M571.9,86.4l1.1,5.6h3.1l-5.4-28h-4.5l-5.4,28h2.9l1.1-5.6H571.9z M568.3,67.5l3.2,16.2h-6.2
			L568.3,67.5z"/>
		<polygon id="XMLID_51_" class="st0" points="598.9,92 602.1,92 602.1,64 599.4,64 599.4,84.2 592.9,64 588.9,64 588.9,92 
			591.7,92 591.7,69.3 		"/>
		<rect id="XMLID_28_" x="615.8" y="64" class="st0" width="3.1" height="28"/>
		<polygon id="XMLID_29_" class="st0" points="650.3,92 650.3,64 645.9,64 641.4,86.4 636.8,64 632.5,64 632.5,92 635.2,92 
			635.2,69.7 639.8,92 642.8,92 647.3,69.5 647.3,92 		"/>
		<path id="XMLID_50_" class="st0" d="M674.1,86.4l1.1,5.6h3.1L673,64h-4.5l-5.4,28h2.9l1.1-5.6H674.1z M670.5,67.5l3.2,16.2h-6.2
			L670.5,67.5z"/>
		<polygon id="XMLID_30_" class="st0" points="691.2,64 691.2,92 702.4,92 702.4,89.2 694.3,89.2 694.3,64 		"/>
		<rect id="XMLID_33_" x="731.8" y="64" class="st0" width="3.1" height="28"/>
		<path id="XMLID_34_" class="st0" d="M760.9,73.3v-2.5c0-4.2-2-7.1-6.3-7.1c-4.3,0-6.3,2.8-6.3,7.1v14.5c0,4.2,2,7.1,6.3,7.1
			c4.3,0,6.3-2.8,6.3-7.1v-3.5h-3v3.6c0,2.5-1,4-3.3,4c-2.2,0-3.3-1.5-3.3-4V70.6c0-2.5,1-4,3.3-4c2.3,0,3.3,1.5,3.3,4v2.7H760.9z"
			/>
		<path id="XMLID_38_" class="st0" d="M786.8,85.2V70.7c0-4.3-2.1-7.1-6.5-7.1c-4.3,0-6.4,2.8-6.4,7.1v14.5c0,4.2,2.1,7.1,6.4,7.1
			C784.7,92.3,786.8,89.5,786.8,85.2z M777,85.4V70.6c0-2.5,1.1-4,3.3-4c2.3,0,3.3,1.5,3.3,4v14.8c0,2.6-1,4-3.3,4
			C778.1,89.4,777,88,777,85.4z"/>
		<polygon id="XMLID_35_" class="st0" points="810.1,92 813.4,92 813.4,64 810.6,64 810.6,84.2 804.1,64 800.2,64 800.2,92 803,92 
			803,69.3 		"/>
		<path id="XMLID_39_" class="st0" d="M826.6,83.7v1.6c0,4.2,2,7,6.3,7c4.3,0,6.3-2.8,6.3-7c0-7.9-9.4-8.5-9.4-14.8c0-2.5,1-4,3.2-4
			c2.2,0,3.2,1.5,3.2,4v0.9h3v-0.8c0-4.2-2-7-6.2-7c-4.2,0-6.2,2.7-6.2,7c0,7.9,9.4,8.5,9.4,14.7c0,2.5-1,4-3.3,4
			c-2.2,0-3.3-1.5-3.3-4v-1.8H826.6z"/>
	</g>
</g>
</svg>
